<?xml version="1.0" encoding="UTF-8"?>
<svg width="1200" height="800" viewBox="0 0 1200 800" xmlns="http://www.w3.org/2000/svg">
  <defs>
    <linearGradient id="bg" x1="0%" y1="0%" x2="100%" y2="100%">
      <stop offset="0%" style="stop-color:#F7F9F6"/>
      <stop offset="100%" style="stop-color:#E5F5EC"/>
    </linearGradient>
    <linearGradient id="nodeGrad" x1="0%" y1="0%" x2="100%" y2="100%">
      <stop offset="0%" style="stop-color:#4ADE80"/>
      <stop offset="100%" style="stop-color:#C7F0DA"/>
    </linearGradient>
  </defs>
  
  <!-- Background -->
  <rect width="100%" height="100%" fill="url(#bg)"/>
  
  <!-- Network nodes and connections -->
  <g opacity="0.8">
    <!-- Central node -->
    <circle cx="600" cy="400" r="20" fill="url(#nodeGrad)"/>
    
    <!-- Surrounding nodes and connections -->
    <circle cx="400" cy="300" r="15" fill="url(#nodeGrad)"/>
    <line x1="600" y1="400" x2="400" y2="300" stroke="#C7F0DA" stroke-width="2"/>
    
    <circle cx="800" cy="300" r="15" fill="url(#nodeGrad)"/>
    <line x1="600" y1="400" x2="800" y2="300" stroke="#C7F0DA" stroke-width="2"/>
    
    <circle cx="500" cy="500" r="15" fill="url(#nodeGrad)"/>
    <line x1="600" y1="400" x2="500" y2="500" stroke="#C7F0DA" stroke-width="2"/>
    
    <circle cx="700" cy="500" r="15" fill="url(#nodeGrad)"/>
    <line x1="600" y1="400" x2="700" y2="500" stroke="#C7F0DA" stroke-width="2"/>
    
    <!-- Secondary connections -->
    <circle cx="300" cy="400" r="10" fill="url(#nodeGrad)"/>
    <line x1="400" y1="300" x2="300" y2="400" stroke="#C7F0DA" stroke-width="1"/>
    
    <circle cx="900" cy="400" r="10" fill="url(#nodeGrad)"/>
    <line x1="800" y1="300" x2="900" y2="400" stroke="#C7F0DA" stroke-width="1"/>
    
    <circle cx="400" cy="600" r="10" fill="url(#nodeGrad)"/>
    <line x1="500" y1="500" x2="400" y2="600" stroke="#C7F0DA" stroke-width="1"/>
    
    <circle cx="800" cy="600" r="10" fill="url(#nodeGrad)"/>
    <line x1="700" y1="500" x2="800" y2="600" stroke="#C7F0DA" stroke-width="1"/>
  </g>
  
  <!-- Additional decorative elements -->
  <g opacity="0.4">
    <circle cx="200" cy="200" r="5" fill="#4ADE80"/>
    <circle cx="1000" cy="200" r="5" fill="#4ADE80"/>
    <circle cx="200" cy="600" r="5" fill="#4ADE80"/>
    <circle cx="1000" cy="600" r="5" fill="#4ADE80"/>
  </g>
</svg>
